<svg aria-hidden="true" style="position: absolute; width: 0; height: 0; overflow: hidden;" version="1.1" xmlns="http://www.w3.org/2000/svg" xmlns:xlink="http://www.w3.org/1999/xlink">
<defs>
<symbol id="icon-burger" viewBox="0 0 55 32">
<path stroke-linejoin="miter" stroke-linecap="butt" stroke-miterlimit="4" stroke-width="1.7778" d="M0 1.778h55.111"></path>
<path stroke-linejoin="miter" stroke-linecap="butt" stroke-miterlimit="4" stroke-width="1.7778" d="M0 16h55.111"></path>
<path stroke-linejoin="miter" stroke-linecap="butt" stroke-miterlimit="4" stroke-width="1.7778" d="M0 30.222h55.111"></path>
</symbol>
<symbol id="icon-i" viewBox="0 0 32 32">
<path d="M15.969 0.125c4.312 0 4.844 0.031 6.531 0.094 1.656 0.063 2.812 0.344 3.844 0.75 1.062 0.406 1.937 0.938 2.812 1.813s1.406 1.75 1.813 2.813c0.406 1.031 0.687 2.187 0.75 3.844 0.062 1.688 0.094 2.219 0.094 6.531s-0.031 4.844-0.094 6.531c-0.063 1.656-0.344 2.812-0.75 3.844-0.406 1.062-0.938 1.937-1.813 2.812s-1.75 1.406-2.812 1.813c-1.031 0.406-2.188 0.687-3.844 0.75-1.688 0.062-2.219 0.094-6.531 0.094s-4.844-0.031-6.531-0.094c-1.656-0.063-2.813-0.344-3.844-0.75-1.063-0.406-1.938-0.938-2.813-1.813s-1.406-1.75-1.813-2.812c-0.406-1.031-0.688-2.188-0.75-3.844-0.063-1.688-0.094-2.219-0.094-6.531s0.031-4.844 0.094-6.531c0.063-1.656 0.344-2.813 0.75-3.844 0.406-1.063 0.938-1.938 1.813-2.813s1.75-1.406 2.813-1.813c1.031-0.406 2.187-0.688 3.844-0.75 1.688-0.063 2.219-0.094 6.531-0.094zM15.969 2.188c-4.5 0-5.031 0.031-6.781 0.094-1.625 0.063-2.531 0.375-3.125 0.594-1.531 0.625-2.563 1.656-3.188 3.188-0.219 0.594-0.531 1.5-0.594 3.125-0.062 1.75-0.094 2.281-0.094 6.781s0.031 5.031 0.094 6.781c0.063 1.625 0.375 2.531 0.594 3.125 0.625 1.531 1.656 2.563 3.188 3.187 0.594 0.219 1.5 0.531 3.125 0.594 1.75 0.063 2.281 0.094 6.781 0.094s5.031-0.031 6.781-0.094c1.625-0.062 2.531-0.375 3.125-0.594 1.531-0.625 2.563-1.656 3.187-3.187 0.219-0.594 0.531-1.5 0.594-3.125 0.063-1.75 0.094-2.281 0.094-6.781s-0.031-5.031-0.094-6.781c-0.062-1.625-0.375-2.531-0.594-3.125-0.625-1.531-1.656-2.563-3.187-3.188-0.594-0.219-1.5-0.531-3.125-0.594-1.75-0.062-2.281-0.094-6.781-0.094zM15.969 22.312c3.5 0 6.344-2.844 6.344-6.344s-2.844-6.344-6.344-6.344c-3.5 0-6.344 2.844-6.344 6.344s2.844 6.344 6.344 6.344zM15.969 7.844c4.5 0 8.125 3.625 8.125 8.125s-3.625 8.125-8.125 8.125c-4.5 0-8.125-3.625-8.125-8.125s3.625-8.125 8.125-8.125zM26.344 7.531c0 1.063-0.875 1.875-1.938 1.875s-1.875-0.812-1.875-1.875c0-1.062 0.813-1.937 1.875-1.937s1.938 0.875 1.938 1.937z"></path>
</symbol>
<symbol id="icon-t" viewBox="0 0 32 32">
<path d="M16.5 1.992l-0 6.996h7.010v2.999h-6.979l-0.010 8.704c0 1.618 0.084 2.657 0.255 3.117 0.267 0.727 1.236 1.657 3.037 1.657 1.397 0 3.281-0.42 4.692-1.477v4.666c-1.177 0.562-2.272 0.788-3.226 1.015-0.955 0.225-1.989 0.339-3.098 0.339-1.236 0-4.802-0.034-6.266-3.763-0.264-0.671-0.395-1.645-0.395-2.921v-11.332h-4.027l0.019-3.066c1.333 0 5.332-0.81 5.332-6.934l3.655-0zM16.5-0.008l-3.655-0c-1.104 0-2 0.895-2 2 0 4.578-2.551 4.934-3.332 4.934-1.101 0-1.995 0.889-2 1.99l-0.019 3.066c-0.003 0.532 0.207 1.043 0.582 1.421 0.186 0.187 0.407 0.335 0.65 0.436s0.504 0.153 0.768 0.153h2.027v9.332c0 1.543 0.175 2.738 0.534 3.652 0.901 2.295 3.043 5.032 8.127 5.032 1.259 0 2.456-0.132 3.559-0.392l0.22-0.052c0.934-0.22 2.126-0.493 3.407-1.104 0.341-0.162 0.629-0.418 0.831-0.738s0.309-0.69 0.309-1.068v-4.666c0-0.371-0.103-0.735-0.298-1.051s-0.474-0.571-0.806-0.737c-0.283-0.143-0.59-0.212-0.896-0.212-0.432 0-0.852 0.14-1.198 0.398-1.19 0.892-2.714 1.078-3.494 1.078-0.8 0-1.097-0.29-1.163-0.367-0.034-0.157-0.129-0.743-0.129-2.406l0.007-6.704h4.982c1.104 0 2-0.896 2-2v-2.999c0-1.104-0.896-2-2-2h-5.010v-4.996c0-1.105-0.895-2-2-2h0z"></path>
</symbol>
<symbol id="icon-x" viewBox="0 0 32 32">
<path d="M21.388 4.959c1.652 0 3.144 0.676 4.195 1.762 1.307-0.253 2.54-0.714 3.647-1.353-0.428 1.301-1.34 2.393-2.525 3.083 1.16-0.136 2.271-0.434 3.301-0.88-0.772 1.117-1.745 2.1-2.868 2.886 0.011 0.239 0.017 0.479 0.017 0.719 0 7.366-5.782 15.863-16.354 15.863-3.245 0-6.268-0.926-8.809-2.507 0.455 0.053 0.912 0.079 1.37 0.079 2.692 0 5.172-0.89 7.139-2.387-2.517-0.043-4.641-1.657-5.369-3.87 0.357 0.067 0.719 0.1 1.082 0.101 0.522 0 1.032-0.067 1.513-0.195-2.629-0.511-4.611-2.764-4.611-5.467v-0.071c0.776 0.418 1.661 0.669 2.604 0.698-1.543-1.001-2.558-2.705-2.558-4.64 0-1.022 0.284-1.981 0.779-2.801 2.834 3.371 7.069 5.591 11.847 5.824-0.099-0.407-0.149-0.837-0.149-1.27 0-3.079 2.573-5.575 5.749-5.575zM30.006 7.572v0zM21.387 2.959c-3.927 0-7.18 2.869-7.681 6.576-3.213-0.646-6.135-2.346-8.235-4.842-0.188-0.223-0.422-0.403-0.686-0.526s-0.553-0.187-0.844-0.187c-0.052 0-0.105 0.002-0.157 0.006-0.317 0.025-0.623 0.126-0.894 0.293s-0.497 0.397-0.662 0.669c-0.697 1.157-1.066 2.482-1.066 3.833 0 0.902 0.162 1.78 0.469 2.601-0.327 0.364-0.515 0.839-0.515 1.341v0.072c0 1.959 0.774 3.777 2.061 5.139-0.074 0.343-0.058 0.702 0.055 1.046 0.444 1.35 1.251 2.513 2.298 3.398-0.703 0.157-1.429 0.236-2.169 0.236-0.392 0-0.772-0.021-1.133-0.066-0.080-0.010-0.159-0.013-0.238-0.013-0.84 0-1.603 0.529-1.885 1.337-0.31 0.885 0.034 1.866 0.83 2.361 2.954 1.838 6.366 2.809 9.866 2.809 11.376 0 18.219-8.906 18.352-17.605 0.934-0.772 1.758-1.667 2.452-2.661 0.263-0.346 0.406-0.768 0.405-1.203 0-0.681-0.34-1.282-0.859-1.644 0.225-0.769-0.032-1.603-0.657-2.111-0.365-0.297-0.812-0.448-1.262-0.448-0.351-0-0.695 0.092-0.999 0.268-0.661 0.381-1.368 0.683-2.113 0.9-1.347-1.014-3.017-1.578-4.732-1.578z"></path>
</symbol>
<symbol id="icon-y" viewBox="0 0 32 32">
<path d="M29.398 5.928c-0.867-0.624-3.283-1.453-13.407-1.453-10.848 0-12.458 0.952-12.975 1.263-2.749 1.651-3.010 8.963-3.034 10.445 0.033 1.958 0.349 8.472 3.032 10.084 0.516 0.31 2.116 1.257 12.976 1.257 10.13 0 12.543-0.825 13.407-1.447 2.343-1.685 2.612-7.49 2.619-9.92-0.006-1.954-0.211-8.496-2.619-10.23v-0zM28.23 24.455c-0.349 0.251-2.35 1.070-12.239 1.070-9.56 0-11.566-0.742-11.945-0.971-0.965-0.579-1.983-3.652-2.063-8.376 0.079-4.713 1.111-8.153 2.066-8.726 0.38-0.229 2.393-0.978 11.943-0.978 9.881 0 11.887 0.824 12.239 1.076 0.856 0.617 1.773 3.865 1.787 8.613-0.013 4.823-0.936 7.678-1.787 8.29v0zM22.513 15.213l-8.998-5.522c-0.152-0.091-0.325-0.141-0.502-0.144s-0.352 0.042-0.506 0.129c-0.154 0.087-0.283 0.214-0.372 0.367s-0.137 0.327-0.137 0.504v11.045c0 0.265 0.106 0.519 0.293 0.707s0.442 0.293 0.707 0.293c0.182 0 0.361-0.050 0.516-0.144l8.998-5.523c0.3-0.181 0.484-0.506 0.484-0.856s-0.183-0.676-0.483-0.857v0zM13.999 19.822v-7.503l6.062 3.751-6.063 3.752z"></path>
</symbol>
<symbol id="icon-up" viewBox="0 0 32 32">
<path d="M4.282 21.733c0.185 0.171 0.433 0.267 0.691 0.267s0.506-0.096 0.691-0.267l10.336-9.567 10.334 9.567c0.185 0.171 0.433 0.267 0.691 0.267s0.506-0.096 0.691-0.267c0.090-0.083 0.162-0.183 0.21-0.293s0.074-0.228 0.074-0.347c0-0.119-0.025-0.237-0.074-0.347s-0.12-0.209-0.21-0.293l-10.994-10.174c-0.193-0.179-0.452-0.279-0.722-0.279s-0.529 0.1-0.722 0.279l-10.994 10.174c-0.090 0.083-0.162 0.183-0.21 0.293s-0.074 0.228-0.074 0.347c0 0.119 0.025 0.237 0.074 0.347s0.12 0.209 0.21 0.293h-0.002z"></path>
</symbol>
<symbol id="icon-down" viewBox="0 0 32 32">
<path d="M27.718 10.267c-0.185-0.171-0.433-0.267-0.691-0.267s-0.506 0.096-0.691 0.267l-10.336 9.567-10.334-9.567c-0.185-0.171-0.433-0.267-0.691-0.267s-0.506 0.096-0.691 0.267c-0.090 0.083-0.162 0.183-0.21 0.293s-0.074 0.228-0.074 0.347c0 0.119 0.025 0.237 0.074 0.347s0.12 0.209 0.21 0.293l10.994 10.174c0.193 0.179 0.452 0.279 0.722 0.279s0.529-0.1 0.722-0.279l10.994-10.174c0.090-0.083 0.162-0.183 0.21-0.293s0.074-0.228 0.074-0.347c0-0.119-0.025-0.237-0.074-0.347s-0.12-0.209-0.21-0.293h0.002z"></path>
</symbol>
<symbol id="icon-bot" viewBox="0 0 32 32">
<path fill="#f3f3f3" style="fill: var(--color1, #f3f3f3)" d="M27.718 10.267c-0.185-0.171-0.433-0.267-0.691-0.267s-0.506 0.096-0.691 0.267l-10.336 9.567-10.334-9.567c-0.185-0.171-0.433-0.267-0.691-0.267s-0.506 0.096-0.691 0.267c-0.090 0.083-0.162 0.183-0.21 0.293s-0.074 0.228-0.074 0.347c0 0.119 0.025 0.237 0.074 0.347s0.12 0.209 0.21 0.293l10.994 10.174c0.193 0.179 0.452 0.279 0.722 0.279s0.529-0.1 0.722-0.279l10.994-10.174c0.090-0.083 0.162-0.183 0.21-0.293s0.074-0.228 0.074-0.347c0-0.119-0.025-0.237-0.074-0.347s-0.12-0.209-0.21-0.293h0.002z"></path>
</symbol>
<symbol id="icon-plus" viewBox="0 0 32 32">
<path d="M25.955 15h-8.955v-8.955c0-0.553-0.448-1-1-1s-1 0.447-1 1v8.955h-8.955c-0.552 0-1 0.447-1 1s0.448 1 1 1h8.955v8.955c0 0.553 0.448 1 1 1s1-0.447 1-1v-8.955h8.955c0.552 0 1-0.447 1-1s-0.448-1-1-1z"></path>
</symbol>
<symbol id="icon-play" viewBox="0 0 24 32">
<path d="M0.858 31.818c0.259 0.135 0.549 0.196 0.841 0.178s0.572-0.115 0.812-0.281l20.8-14.4c0.212-0.147 0.386-0.344 0.506-0.573s0.183-0.484 0.183-0.742-0.063-0.513-0.183-0.742c-0.12-0.229-0.294-0.426-0.506-0.573l-20.8-14.4c-0.24-0.167-0.521-0.266-0.813-0.284s-0.583 0.043-0.842 0.179c-0.259 0.136-0.476 0.34-0.627 0.59s-0.23 0.537-0.229 0.83v28.8c-0 0.292 0.080 0.579 0.231 0.828s0.368 0.454 0.627 0.589zM3.2 4.654l16.389 11.346-16.389 11.346v-22.691z"></path>
</symbol>
<symbol id="icon-left" viewBox="0 0 17 32">
<path d="M16.464 31.112c0.233-0.238 0.363-0.558 0.363-0.891s-0.13-0.653-0.363-0.891l-12.995-13.331 12.995-13.328c0.233-0.238 0.363-0.558 0.363-0.891s-0.13-0.653-0.363-0.891c-0.113-0.116-0.248-0.208-0.397-0.271s-0.31-0.095-0.472-0.095c-0.162 0-0.323 0.032-0.472 0.095s-0.285 0.155-0.398 0.271l-13.819 14.179c-0.243 0.249-0.379 0.583-0.379 0.931s0.136 0.682 0.379 0.931l13.819 14.179c0.113 0.116 0.248 0.208 0.398 0.271s0.31 0.095 0.472 0.095c0.162 0 0.323-0.033 0.472-0.095s0.284-0.155 0.397-0.271v0.003z"></path>
</symbol>
<symbol id="icon-points" viewBox="0 0 352 32">
<path d="M32 16c0 8.837-7.163 16-16 16s-16-7.163-16-16c0-8.837 7.163-16 16-16s16 7.163 16 16z"></path>
<path stroke-linejoin="miter" stroke-linecap="butt" stroke-miterlimit="4" stroke-width="4" d="M94 16c0 7.732-6.268 14-14 14s-14-6.268-14-14c0-7.732 6.268-14 14-14s14 6.268 14 14z"></path>
<path d="M160 16c0 8.837-7.163 16-16 16s-16-7.163-16-16c0-8.837 7.163-16 16-16s16 7.163 16 16z"></path>
<path d="M224 16c0 8.837-7.163 16-16 16s-16-7.163-16-16c0-8.837 7.163-16 16-16s16 7.163 16 16z"></path>
<path d="M288 16c0 8.837-7.163 16-16 16s-16-7.163-16-16c0-8.837 7.163-16 16-16s16 7.163 16 16z"></path>
<path d="M352 16c0 8.837-7.163 16-16 16s-16-7.163-16-16c0-8.837 7.163-16 16-16s16 7.163 16 16z"></path>
</symbol>
<symbol id="icon-right" viewBox="0 0 16 32">
<path d="M0.356 0.377c-0.228 0.246-0.356 0.577-0.356 0.921s0.128 0.675 0.356 0.921l12.757 13.782-12.757 13.779c-0.228 0.246-0.356 0.577-0.356 0.921s0.128 0.674 0.356 0.921c0.111 0.12 0.244 0.215 0.39 0.281s0.304 0.099 0.463 0.099c0.159 0 0.317-0.034 0.463-0.099s0.279-0.161 0.39-0.281l13.565-14.659c0.238-0.257 0.372-0.603 0.372-0.962s-0.133-0.705-0.372-0.962l-13.565-14.659c-0.111-0.12-0.244-0.215-0.39-0.281s-0.304-0.099-0.463-0.099c-0.159 0-0.317 0.034-0.463 0.099s-0.279 0.161-0.39 0.281v-0.003z"></path>
</symbol>
<symbol id="icon-i" viewBox="0 0 32 32">
<path d="M16 0c4.355 0 4.892 0.032 6.596 0.095 1.673 0.063 2.84 0.347 3.882 0.757 1.073 0.41 1.957 0.947 2.84 1.83s1.42 1.767 1.83 2.84c0.41 1.041 0.694 2.209 0.757 3.882 0.063 1.704 0.095 2.241 0.095 6.596s-0.032 4.892-0.095 6.596c-0.063 1.673-0.347 2.84-0.757 3.882-0.41 1.073-0.947 1.957-1.83 2.84s-1.767 1.42-2.84 1.83c-1.042 0.41-2.209 0.694-3.882 0.757-1.704 0.063-2.241 0.095-6.596 0.095s-4.892-0.032-6.596-0.095c-1.673-0.063-2.84-0.347-3.882-0.757-1.073-0.41-1.957-0.947-2.84-1.83s-1.42-1.767-1.83-2.84c-0.41-1.042-0.694-2.209-0.757-3.882-0.063-1.704-0.095-2.241-0.095-6.596s0.032-4.892 0.095-6.596c0.063-1.673 0.347-2.84 0.757-3.882 0.41-1.073 0.947-1.957 1.83-2.84s1.767-1.42 2.84-1.83c1.041-0.41 2.209-0.694 3.882-0.757 1.704-0.063 2.241-0.095 6.596-0.095zM16 2.083c-4.544 0-5.081 0.032-6.848 0.095-1.641 0.063-2.556 0.379-3.156 0.6-1.546 0.631-2.588 1.673-3.219 3.219-0.221 0.6-0.536 1.515-0.6 3.156-0.063 1.767-0.095 2.304-0.095 6.848s0.032 5.081 0.095 6.848c0.063 1.641 0.379 2.556 0.6 3.156 0.631 1.546 1.673 2.588 3.219 3.219 0.6 0.221 1.515 0.537 3.156 0.6 1.767 0.063 2.304 0.095 6.848 0.095s5.081-0.032 6.848-0.095c1.641-0.063 2.556-0.379 3.156-0.6 1.546-0.631 2.588-1.673 3.219-3.219 0.221-0.6 0.537-1.515 0.6-3.156 0.063-1.767 0.095-2.304 0.095-6.848s-0.032-5.081-0.095-6.848c-0.063-1.641-0.379-2.556-0.6-3.156-0.631-1.546-1.673-2.588-3.219-3.219-0.6-0.221-1.515-0.536-3.156-0.6-1.767-0.063-2.304-0.095-6.848-0.095zM16 22.406c3.535 0 6.406-2.872 6.406-6.406s-2.872-6.406-6.406-6.406c-3.535 0-6.406 2.872-6.406 6.406s2.872 6.406 6.406 6.406zM16 7.795c4.544 0 8.205 3.661 8.205 8.205s-3.661 8.205-8.205 8.205c-4.544 0-8.205-3.661-8.205-8.205s3.661-8.205 8.205-8.205zM26.477 7.479c0 1.073-0.884 1.893-1.957 1.893s-1.894-0.821-1.894-1.893 0.821-1.957 1.894-1.957c1.073 0 1.957 0.884 1.957 1.957z"></path>
</symbol>
<symbol id="icon-loc" viewBox="0 0 32 32">
<path d="M25 13c0-2.387-0.948-4.676-2.636-6.364s-3.977-2.636-6.364-2.636-4.676 0.948-6.364 2.636c-1.688 1.688-2.636 3.977-2.636 6.364 0 3.692 2.954 8.504 9 14.268 6.046-5.764 9-10.576 9-14.268zM16 30c-7.334-6.666-11-12.334-11-17 0-2.917 1.159-5.715 3.222-7.778s4.861-3.222 7.778-3.222c2.917 0 5.715 1.159 7.778 3.222s3.222 4.861 3.222 7.778c0 4.666-3.666 10.334-11 17z"></path>
<path d="M16 16c0.796 0 1.559-0.316 2.121-0.879s0.879-1.326 0.879-2.121c0-0.796-0.316-1.559-0.879-2.121s-1.326-0.879-2.121-0.879-1.559 0.316-2.121 0.879c-0.563 0.563-0.879 1.326-0.879 2.121s0.316 1.559 0.879 2.121c0.563 0.563 1.326 0.879 2.121 0.879zM16 18c-1.326 0-2.598-0.527-3.536-1.464s-1.464-2.209-1.464-3.536c0-1.326 0.527-2.598 1.464-3.536s2.209-1.464 3.536-1.464c1.326 0 2.598 0.527 3.536 1.464s1.464 2.209 1.464 3.536c0 1.326-0.527 2.598-1.464 3.536s-2.209 1.464-3.536 1.464z"></path>
</symbol>
<symbol id="icon-mail" viewBox="0 0 32 32">
<path d="M29.576 4.364h-27.152c-0.514 0-1.008 0.204-1.371 0.568s-0.568 0.857-0.568 1.371v19.394c0 0.514 0.204 1.008 0.568 1.371s0.857 0.568 1.371 0.568h27.152c0.514 0 1.008-0.204 1.371-0.568s0.568-0.857 0.568-1.371v-19.394c0-0.514-0.204-1.008-0.568-1.371s-0.857-0.568-1.371-0.568zM28.083 25.697h-24.048l6.788-7.021-1.396-1.348-7.001 7.244v-16.795l12.053 11.995c0.363 0.361 0.855 0.564 1.367 0.564s1.004-0.203 1.367-0.564l12.364-12.296v16.97l-7.137-7.137-1.367 1.367 7.011 7.021zM3.695 6.303h24.31l-12.16 12.092-12.15-12.092z"></path>
</symbol>
<symbol id="icon-t" viewBox="0 0 32 32">
<path d="M16.524 1.999l-0 6.992h7.339v2.998h-7.307l-0.010 8.7c0 1.617 0.088 2.655 0.267 3.116 0.279 0.726 1.295 1.656 3.18 1.656 1.462 0 3.435-0.42 4.913-1.476v4.664c-1.233 0.561-2.379 0.788-3.378 1.014-1 0.225-2.083 0.339-3.244 0.339-1.294 0-5.028-0.034-6.56-3.761-0.276-0.671-0.414-1.645-0.414-2.92v-11.326h-4.216l0.020-3.065c1.396 0 5.583-0.809 5.583-6.93l3.827-0zM16.524 0l-3.827-0c-1.156 0-2.094 0.895-2.094 1.999 0 4.576-2.671 4.931-3.489 4.931-1.152 0-2.089 0.889-2.094 1.989l-0.020 3.065c-0.003 0.532 0.217 1.042 0.609 1.42 0.195 0.187 0.426 0.335 0.681 0.436s0.528 0.153 0.804 0.153h2.122v9.327c0 1.542 0.183 2.737 0.559 3.651 0.944 2.294 3.186 5.029 8.509 5.029 1.318 0 2.571-0.132 3.726-0.392l0.231-0.052c0.977-0.219 2.226-0.493 3.567-1.103 0.357-0.162 0.659-0.418 0.87-0.738s0.323-0.689 0.323-1.067v-4.664c0-0.371-0.108-0.735-0.312-1.050s-0.497-0.571-0.844-0.737c-0.296-0.142-0.618-0.212-0.938-0.212-0.452 0-0.892 0.14-1.254 0.398-1.246 0.891-2.842 1.078-3.658 1.078-0.838 0-1.149-0.29-1.218-0.367-0.036-0.157-0.135-0.743-0.135-2.405l0.007-6.701h5.216c1.156 0 2.094-0.895 2.094-1.999v-2.998c0-1.104-0.938-1.999-2.094-1.999h-5.245v-4.994c0-1.104-0.938-1.999-2.094-1.999h0z"></path>
</symbol>
<symbol id="icon-x" viewBox="0 0 32 32">
<path d="M21.384 3.994c1.652 0 3.143 0.674 4.193 1.756 1.307-0.252 2.539-0.712 3.645-1.348-0.428 1.297-1.339 2.385-2.524 3.073 1.159-0.136 2.269-0.433 3.299-0.877-0.772 1.113-1.744 2.094-2.866 2.877 0.010 0.238 0.016 0.478 0.016 0.717 0 7.343-5.778 15.813-16.344 15.813-3.243 0-6.264-0.923-8.805-2.499 0.454 0.053 0.912 0.079 1.369 0.079 2.691 0 5.169-0.888 7.136-2.38-2.515-0.043-4.638-1.651-5.366-3.858 0.357 0.067 0.719 0.1 1.081 0.1 0.522 0 1.031-0.067 1.512-0.195-2.628-0.509-4.608-2.755-4.608-5.449v-0.071c0.775 0.417 1.66 0.667 2.603 0.696-1.542-0.998-2.556-2.696-2.556-4.625 0-1.019 0.284-1.974 0.778-2.792 2.832 3.36 7.065 5.573 11.84 5.806-0.098-0.406-0.149-0.834-0.149-1.265 0-3.070 2.572-5.557 5.746-5.557zM29.998 6.598v0zM21.384 2c-3.925 0-7.176 2.86-7.677 6.555-3.211-0.643-6.132-2.339-8.23-4.827-0.188-0.223-0.422-0.401-0.686-0.524s-0.552-0.186-0.844-0.186c-0.052 0-0.105 0.002-0.157 0.006-0.317 0.025-0.623 0.125-0.893 0.292s-0.497 0.395-0.661 0.667c-0.697 1.153-1.065 2.474-1.065 3.821 0 0.899 0.162 1.774 0.469 2.592-0.327 0.362-0.515 0.836-0.515 1.337v0.071c0 1.953 0.774 3.765 2.059 5.123-0.074 0.342-0.057 0.7 0.055 1.043 0.443 1.345 1.25 2.505 2.297 3.388-0.703 0.156-1.428 0.235-2.168 0.235-0.391 0-0.772-0.021-1.132-0.065-0.080-0.010-0.159-0.013-0.238-0.013-0.84 0-1.602 0.528-1.884 1.333-0.31 0.882 0.034 1.86 0.83 2.354 2.952 1.832 6.362 2.8 9.861 2.8 11.37 0 18.209-8.877 18.342-17.549 0.933-0.77 1.757-1.662 2.45-2.653 0.263-0.345 0.405-0.766 0.405-1.199 0-0.678-0.34-1.278-0.858-1.638 0.224-0.767-0.032-1.597-0.656-2.105-0.365-0.296-0.812-0.447-1.262-0.447-0.351-0-0.695 0.092-0.999 0.267-0.661 0.38-1.367 0.68-2.111 0.897-1.346-1.010-3.015-1.573-4.729-1.573z"></path>
</symbol>
<symbol id="icon-y" viewBox="0 0 32 32">
<path d="M29.384 5.513c-0.866-0.65-3.28-1.513-13.392-1.513-10.837 0-12.445 0.991-12.961 1.316-2.746 1.72-3.007 9.332-3.031 10.876 0.033 2.039 0.349 8.822 3.029 10.5 0.515 0.323 2.114 1.309 12.963 1.309 10.119 0 12.53-0.859 13.392-1.506 2.34-1.755 2.61-7.799 2.616-10.329-0.006-2.035-0.211-8.846-2.616-10.652v-0zM28.217 24.804c-0.348 0.261-2.347 1.114-12.226 1.114-9.55 0-11.554-0.773-11.933-1.011-0.964-0.603-1.981-3.803-2.061-8.721 0.079-4.907 1.11-8.49 2.063-9.085 0.38-0.239 2.391-1.018 11.931-1.018 9.871 0 11.875 0.858 12.226 1.12 0.856 0.642 1.772 4.024 1.785 8.969-0.013 5.022-0.935 7.995-1.785 8.632v0zM22.506 15.181l-8.988-5.749c-0.152-0.095-0.325-0.147-0.502-0.149s-0.351 0.044-0.505 0.134c-0.154 0.091-0.283 0.222-0.372 0.382s-0.136 0.341-0.137 0.525v11.5c0 0.276 0.105 0.541 0.293 0.736s0.441 0.305 0.706 0.305c0.182 0 0.36-0.052 0.516-0.149l8.989-5.751c0.3-0.189 0.483-0.527 0.483-0.892s-0.183-0.704-0.483-0.892v0zM14.001 19.979v-7.812l6.056 3.906-6.056 3.907z"></path>
</symbol>
<symbol id="icon-xxx" viewBox="0 0 32 32">
<path fill="#fff" style="fill: var(--color1, #fff)" d="M23.884 6.706l-7.884 7.884-7.884-7.884c-0.19-0.174-0.439-0.267-0.696-0.261s-0.502 0.11-0.684 0.292c-0.182 0.182-0.286 0.427-0.292 0.684s0.088 0.506 0.261 0.696l7.88 7.884-7.882 7.882c-0.096 0.092-0.173 0.202-0.226 0.324s-0.081 0.253-0.083 0.386 0.023 0.265 0.073 0.388c0.050 0.123 0.124 0.235 0.218 0.329s0.206 0.169 0.329 0.219 0.255 0.075 0.388 0.074c0.133-0.002 0.264-0.029 0.386-0.082s0.232-0.13 0.324-0.226l7.886-7.882 7.884 7.884c0.19 0.174 0.439 0.267 0.696 0.262s0.502-0.11 0.684-0.292c0.182-0.182 0.286-0.427 0.292-0.684s-0.088-0.506-0.262-0.696l-7.884-7.884 7.884-7.886c0.096-0.092 0.173-0.202 0.226-0.324s0.081-0.253 0.083-0.386c0.002-0.133-0.023-0.265-0.073-0.388s-0.124-0.235-0.218-0.329c-0.094-0.094-0.206-0.169-0.329-0.219s-0.255-0.075-0.388-0.074-0.264 0.029-0.386 0.082c-0.122 0.053-0.232 0.13-0.324 0.226v0.002z"></path>
</symbol>
<symbol id="icon-close" viewBox="0 0 32 32">
<path d="M16 12.648l11.733-11.733 3.352 3.352-11.733 11.733 11.733 11.733-3.352 3.352-11.733-11.733-11.733 11.733-3.352-3.352 11.733-11.733-11.733-11.733 3.352-3.352 11.733 11.733z"></path>
</symbol>
<symbol id="icon-check" viewBox="0 0 32 32">
<path stroke-linejoin="miter" stroke-linecap="butt" stroke-miterlimit="4" stroke-width="2.6667" d="M30.667 16c0 8.1-6.567 14.667-14.667 14.667s-14.667-6.566-14.667-14.667c0-8.1 6.566-14.667 14.667-14.667s14.667 6.566 14.667 14.667z"></path>
</symbol>
<symbol id="icon-select-btn" viewBox="0 0 64 32">
<path fill="#f3f3f3" style="fill: var(--color1, #f3f3f3)" d="M32 32l-32-32h64l-32 32z"></path>
</symbol>
</defs>
</svg>
